<svg width="10" height="14" viewBox="0 0 10 14" fill="none" xmlns="http://www.w3.org/2000/svg">
<path d="M6.09863 10.6777H3.85742C3.85156 10.3555 3.84863 10.1592 3.84863 10.0889C3.84863 9.3623 3.96875 8.76465 4.20898 8.2959C4.44922 7.82715 4.92969 7.2998 5.65039 6.71387C6.37109 6.12793 6.80176 5.74414 6.94238 5.5625C7.15918 5.27539 7.26758 4.95898 7.26758 4.61328C7.26758 4.13281 7.07422 3.72266 6.6875 3.38281C6.30664 3.03711 5.79102 2.86426 5.14062 2.86426C4.51367 2.86426 3.98926 3.04297 3.56738 3.40039C3.14551 3.75781 2.85547 4.30273 2.69727 5.03516L0.429688 4.75391C0.494141 3.70508 0.939453 2.81445 1.76562 2.08203C2.59766 1.34961 3.6875 0.983398 5.03516 0.983398C6.45312 0.983398 7.58105 1.35547 8.41895 2.09961C9.25684 2.83789 9.67578 3.69922 9.67578 4.68359C9.67578 5.22852 9.52051 5.74414 9.20996 6.23047C8.90527 6.7168 8.24902 7.37891 7.24121 8.2168C6.71973 8.65039 6.39453 8.99902 6.26562 9.2627C6.14258 9.52637 6.08691 9.99805 6.09863 10.6777ZM3.85742 14V11.5303H6.32715V14H3.85742Z" fill="#0051FF"/>
</svg>
