<svg width="40" height="40" viewBox="0 0 40 40" fill="none" xmlns="http://www.w3.org/2000/svg">
<g clip-path="url(#clip0)">
<path d="M35.69 0H4.30969C1.93329 0 0 1.93329 0 4.30969V27.2971C0 29.6738 1.93329 31.6071 4.30969 31.6071H14.2548L17.5485 38.1943C18.1223 39.3417 19.0158 40 20 40C20.9842 40 21.8777 39.3417 22.4515 38.1946L25.7449 31.6074H35.69C38.0664 31.6074 39.9997 29.6738 39.9997 27.2974V4.30969C39.9997 1.93329 38.0664 0 35.69 0V0ZM37.6559 27.2971C37.6559 28.3813 36.7743 29.2633 35.69 29.2633H25.0208C24.5767 29.2633 24.1711 29.5142 23.9725 29.9112L20.3549 37.1463C20.209 37.4377 20.072 37.5812 19.9997 37.6361C19.9277 37.5812 19.7903 37.4377 19.6448 37.1463L16.0272 29.9112C15.8286 29.5142 15.423 29.2633 14.9789 29.2633H4.30969C3.22571 29.2633 2.34375 28.3813 2.34375 27.2971V4.30969C2.34375 3.22571 3.22571 2.34375 4.30969 2.34375H35.69C36.774 2.34375 37.6559 3.22571 37.6559 4.30969V27.2971Z" fill="white"/>
<path d="M23.6022 14.8227C24.8019 13.8013 25.5648 12.2815 25.5648 10.5859C25.5648 7.5174 23.0685 5.02075 19.9996 5.02075C16.9311 5.02075 14.4348 7.5174 14.4348 10.5859C14.4348 12.2815 15.1977 13.8013 16.3976 14.8227C14.4152 16.0388 13.0898 18.226 13.0898 20.7172V25.0208C13.0898 25.668 13.6144 26.1926 14.2617 26.1926H25.7379C26.3851 26.1926 26.9097 25.668 26.9097 25.0208V20.7172C26.9097 18.226 25.5847 16.0388 23.6022 14.8227ZM16.7785 10.5859C16.7785 8.80951 18.2235 7.3645 19.9996 7.3645C21.7761 7.3645 23.2211 8.80981 23.2211 10.5859C23.2211 12.3621 21.7761 13.8071 19.9996 13.8071C18.2235 13.8071 16.7785 12.3621 16.7785 10.5859ZM24.566 23.8489H15.4336V20.7175C15.4336 18.1995 17.4819 16.1511 19.9996 16.1511C22.5176 16.1511 24.566 18.1995 24.566 20.7175V23.8489Z" fill="white"/>
</g>
<defs>
<clipPath id="clip0">
<rect width="40" height="40" fill="white"/>
</clipPath>
</defs>
</svg>
