<svg width="40" height="40" viewBox="0 0 40 40" fill="none" xmlns="http://www.w3.org/2000/svg">
<path d="M32.2705 17.8741C34.6548 16.3199 36.2344 13.6304 36.2344 10.578C36.2344 5.77911 32.3303 1.875 27.5314 1.875C24.3192 1.875 21.5079 3.62457 20 6.2207C18.4921 3.62457 15.6812 1.875 12.4689 1.875C7.66998 1.875 3.76556 5.77911 3.76556 10.578C3.76556 13.6304 5.34515 16.3199 7.72949 17.8741C3.19794 19.7433 0 24.2081 0 29.4064V33.7994C0 36.1761 1.93359 38.1094 4.31 38.1094H35.69C38.0667 38.1094 40 36.1761 40 33.7997V29.4064C40 24.2081 36.8021 19.7433 32.2705 17.8741ZM27.5314 4.21875C31.0379 4.21875 33.8907 7.07153 33.8907 10.578C33.8907 14.0848 31.0379 16.9376 27.5314 16.9376C24.0247 16.9376 21.1719 14.0848 21.1719 10.578C21.1719 7.07153 24.0247 4.21875 27.5314 4.21875ZM19.9957 19.4727C19.1449 18.8263 18.2092 18.287 17.2083 17.8741C18.353 17.128 19.3121 16.12 20 14.9359C20.6876 16.1194 21.6461 17.1268 22.7899 17.8729C21.7984 18.2806 20.8591 18.8171 19.9957 19.4727ZM6.10931 10.578C6.10931 7.07153 8.9621 4.21875 12.4689 4.21875C15.9753 4.21875 18.8281 7.07153 18.8281 10.578C18.8281 14.0848 15.9753 16.9376 12.4689 16.9376C8.9621 16.9376 6.10931 14.0848 6.10931 10.578ZM19.3723 35.7657H4.31C3.22571 35.7657 2.34375 34.8837 2.34375 33.7997V29.4064C2.34375 23.8232 6.88599 19.2813 12.4689 19.2813C18.0518 19.2813 22.594 23.8235 22.594 29.4064V33.7997C22.594 34.8837 21.7117 35.7657 20.6277 35.7657H19.3723ZM37.6562 33.7997C37.6562 34.8837 36.7743 35.7657 35.69 35.7657H24.4611C24.765 35.1758 24.9377 34.5078 24.9377 33.7997V29.4064C24.9377 26.2149 23.7317 23.2999 21.7526 21.0922C23.4402 19.9179 25.4517 19.2813 27.5314 19.2813C33.1143 19.2813 37.6562 23.8232 37.6562 29.4064V33.7997Z" fill="#0051FF"/>
</svg>
