<svg width="24" height="24" viewBox="0 0 24 24" fill="none" xmlns="http://www.w3.org/2000/svg">
<path d="M4 7.90421C4 6.82028 4.26734 5.8986 4.80203 5.13916C5.33672 4.37972 6.11168 4 7.1269 4C8.06091 4 8.83249 4.34175 9.44162 5.02524C10.0575 5.70183 10.3655 6.69946 10.3655 8.01812C10.3655 9.30227 10.0541 10.293 9.43147 10.9903C8.81557 11.6807 8.05415 12.0259 7.14721 12.0259C6.24704 12.0259 5.49577 11.6841 4.8934 11.0006C4.2978 10.3172 4 9.28501 4 7.90421ZM7.17766 5.28414C6.7242 5.28414 6.34518 5.48436 6.04061 5.88479C5.74281 6.28522 5.59391 7.0205 5.59391 8.09061C5.59391 9.06408 5.74619 9.75102 6.05076 10.1515C6.35533 10.545 6.73096 10.7417 7.17766 10.7417C7.6379 10.7417 8.01692 10.5415 8.31472 10.1411C8.61929 9.74067 8.77157 9.00885 8.77157 7.94563C8.77157 6.96526 8.61929 6.27832 8.31472 5.88479C8.01015 5.48436 7.63113 5.28414 7.17766 5.28414ZM7.18782 20L15.3299 4H16.8122L8.70051 20H7.18782ZM13.6244 15.8783C13.6244 14.7875 13.8917 13.8658 14.4264 13.1133C14.9611 12.3538 15.7394 11.9741 16.7614 11.9741C17.6954 11.9741 18.467 12.3159 19.0761 12.9994C19.692 13.6759 20 14.6736 20 15.9922C20 17.2764 19.6887 18.2671 19.066 18.9644C18.4501 19.6548 17.6853 20 16.7716 20C15.8714 20 15.1201 19.6583 14.5178 18.9748C13.9222 18.2844 13.6244 17.2522 13.6244 15.8783ZM16.8122 13.2583C16.3519 13.2583 15.9695 13.4585 15.665 13.8589C15.3672 14.2593 15.2183 14.9946 15.2183 16.0647C15.2183 17.0313 15.3706 17.7148 15.6751 18.1152C15.9797 18.5156 16.3553 18.7159 16.802 18.7159C17.269 18.7159 17.6514 18.5156 17.9492 18.1152C18.2538 17.7148 18.4061 16.983 18.4061 15.9197C18.4061 14.9394 18.2538 14.2524 17.9492 13.8589C17.6447 13.4585 17.2657 13.2583 16.8122 13.2583Z" fill="#231F20"/>
</svg>
