<svg width="88" height="16" viewBox="0 0 88 16" fill="none" xmlns="http://www.w3.org/2000/svg">
<path d="M8 0L9.79611 5.52786H15.6085L10.9062 8.94427L12.7023 14.4721L8 11.0557L3.29772 14.4721L5.09383 8.94427L0.391548 5.52786H6.20389L8 0Z" fill="#FF4D00"/>
<path d="M26 0L27.7961 5.52786H33.6085L28.9062 8.94427L30.7023 14.4721L26 11.0557L21.2977 14.4721L23.0938 8.94427L18.3915 5.52786H24.2039L26 0Z" fill="#FF4D00"/>
<path d="M44 0L45.7961 5.52786H51.6085L46.9062 8.94427L48.7023 14.4721L44 11.0557L39.2977 14.4721L41.0938 8.94427L36.3915 5.52786H42.2039L44 0Z" fill="#FF4D00"/>
<path d="M62 0L63.7961 5.52786H69.6085L64.9062 8.94427L66.7023 14.4721L62 11.0557L57.2977 14.4721L59.0938 8.94427L54.3915 5.52786H60.2039L62 0Z" fill="#FF4D00"/>
<path d="M80 1.61803L81.3206 5.68237L81.4328 6.02786H81.7961H86.0696L82.6123 8.53976L82.3184 8.75329L82.4306 9.09878L83.7512 13.1631L80.2939 10.6512L80 10.4377L79.7061 10.6512L76.2488 13.1631L77.5694 9.09878L77.6816 8.75329L77.3877 8.53976L73.9304 6.02786H78.2039H78.5672L78.6794 5.68237L80 1.61803Z" stroke="#FF4D00"/>
</svg>
