<svg width="40" height="40" viewBox="0 0 40 40" fill="none" xmlns="http://www.w3.org/2000/svg">
<path d="M35.6939 0H20.5135C20.2029 0 19.9047 0.123596 19.685 0.343322L1.25885 18.7689C-0.419615 20.4479 -0.419615 23.1796 1.25885 24.858L15.1416 38.7404C15.9521 39.551 17.0333 39.9974 18.1857 39.9977H18.186C19.3386 39.9977 20.4199 39.551 21.2307 38.7401L39.6563 20.3143C39.876 20.0945 39.9996 19.7964 39.9996 19.4857L39.9999 4.30541C39.9996 1.93145 38.0678 0 35.6939 0ZM37.6558 19.0005L19.5733 37.083C19.2053 37.4514 18.7124 37.654 18.186 37.654C17.6593 37.654 17.1667 37.4514 16.7987 37.0833L2.91595 23.2009C2.15118 22.4362 2.15118 21.191 2.91595 20.426L20.9988 2.34374H35.6939C36.7757 2.34374 37.6561 3.22387 37.6561 4.30571L37.6558 19.0005Z" fill="#0051FF"/>
<path d="M29.6705 6.64673C28.687 6.64673 27.7623 7.03003 27.0668 7.72552C26.3713 8.42072 25.9883 9.3454 25.9883 10.329C25.9883 11.3126 26.3713 12.2372 27.0668 12.9327C27.7623 13.6282 28.687 14.0112 29.6705 14.0112C30.6538 14.0112 31.5785 13.6282 32.274 12.9327C32.9695 12.2372 33.3525 11.3126 33.3525 10.329C33.3525 9.3454 32.9695 8.42072 32.2743 7.72552C31.5788 7.03003 30.6541 6.64673 29.6705 6.64673ZM30.6169 11.2753C30.3642 11.5283 30.0279 11.6675 29.6705 11.6675C29.3129 11.6675 28.9769 11.5283 28.7242 11.2753C28.4712 11.0226 28.332 10.6863 28.332 10.329C28.332 9.97162 28.4712 9.63531 28.7242 9.38263C28.9769 9.12964 29.3132 8.99048 29.6705 8.99048C30.0279 8.99048 30.3639 9.12964 30.6169 9.38263C30.8699 9.63531 31.009 9.97162 31.009 10.329C31.009 10.6863 30.8696 11.0226 30.6169 11.2753Z" fill="#0051FF"/>
</svg>
