<svg width="40" height="40" viewBox="0 0 40 40" fill="none" xmlns="http://www.w3.org/2000/svg">
<g clip-path="url(#clip0)">
<path d="M35.6903 2.57812H4.31C1.93329 2.57812 0 4.51141 0 6.88782V33.2474C0 35.6238 1.93329 37.5574 4.31 37.5574H35.6903C38.0667 37.5574 40 35.6238 40 33.2474V6.88782C40 4.51141 38.0667 2.57812 35.6903 2.57812ZM35.6903 4.92188C35.788 4.92188 35.8838 4.9292 35.9778 4.94324L21.3904 19.5306C20.6238 20.2972 19.3762 20.2972 18.6096 19.5306L4.02222 4.94324C4.11621 4.9292 4.21204 4.92188 4.31 4.92188H35.6903ZM37.6562 33.2474C37.6562 34.3317 36.7743 35.2136 35.6903 35.2136H4.31C3.22571 35.2136 2.34375 34.3317 2.34375 33.2474V6.88812C2.34375 6.79016 2.35107 6.69434 2.36481 6.60034L16.9525 21.1877C17.7927 22.0282 18.8962 22.4481 20 22.4481C21.1038 22.4481 22.2073 22.0282 23.0475 21.1877L37.6352 6.60034C37.6489 6.69434 37.6562 6.79047 37.6562 6.88812V33.2474Z" fill="#0051FF"/>
</g>
<defs>
<clipPath id="clip0">
<rect width="40" height="40" fill="white"/>
</clipPath>
</defs>
</svg>
