<svg width="125" height="48" viewBox="0 0 125 48" fill="none" xmlns="http://www.w3.org/2000/svg">
<g clip-path="url(#clip0)">
<path d="M40.1514 12.6413C40.1886 12.8808 40.2072 13.1569 40.2072 13.4623C40.2072 13.7741 40.189 14.0412 40.1506 14.2791C40.1036 14.5721 40.0229 14.8117 39.9041 15.0118C39.7683 15.2428 39.5882 15.4216 39.3713 15.541C39.1578 15.6569 38.9269 15.7147 38.6821 15.7147H30.7681V38.8208C30.7681 39.0876 30.6865 39.339 30.5313 39.5484C30.3723 39.7608 30.1393 39.9141 29.8358 40.0093C29.6425 40.07 29.4062 40.1189 29.0924 40.1626C28.7927 40.2034 28.4396 40.2229 28.0087 40.2229C27.6011 40.2229 27.2426 40.203 26.9428 40.1635C26.616 40.1193 26.3745 40.07 26.18 40.0088C25.879 39.915 25.6456 39.7612 25.4891 39.5527C25.331 39.339 25.2494 39.0876 25.2494 38.8208V15.7147H17.3366C17.091 15.7147 16.8601 15.6569 16.65 15.5423C16.4204 15.4178 16.2373 15.2271 16.1066 14.9761C16.0119 14.7998 15.9379 14.5777 15.8838 14.3054C15.8348 14.0599 15.8111 13.7838 15.8111 13.4623C15.8111 13.1476 15.8356 12.8621 15.8834 12.6145C15.9354 12.3414 16.0069 12.1163 16.1024 11.9273C16.2276 11.672 16.4111 11.4741 16.6453 11.3441C16.8597 11.2273 17.0906 11.1695 17.3366 11.1695H38.6817C38.9273 11.1695 39.1582 11.2273 39.3679 11.3407C39.5979 11.4698 39.7789 11.6567 39.9146 11.9005C40.0279 12.1044 40.1057 12.3469 40.1514 12.6413ZM60.362 23.6574C60.6994 24.8667 60.8707 26.1732 60.8707 27.5409V28.2103C60.8707 29.0046 60.647 29.6034 60.2056 29.9912C59.7912 30.354 59.31 30.5379 58.7747 30.5379H46.8206C46.857 31.308 46.9525 32.0181 47.106 32.6552C47.2959 33.4406 47.6126 34.1198 48.0477 34.6728C48.4777 35.2207 49.0252 35.631 49.7216 35.927C50.4311 36.2295 51.3279 36.3824 52.3884 36.3824C53.2497 36.3824 54.0239 36.3093 54.689 36.1645C55.3752 36.0145 55.9688 35.848 56.4534 35.6688C56.9511 35.4853 57.3675 35.3167 57.6927 35.1663C58.4978 34.7917 58.9925 34.7802 59.4195 35.0614C59.6221 35.1956 59.7734 35.3838 59.8724 35.6217C59.943 35.795 59.9908 35.9993 60.0204 36.2503C60.0449 36.4665 60.0571 36.7226 60.0571 37.0152C60.0571 37.2306 60.0483 37.4243 60.0313 37.5904C60.0157 37.7509 59.9946 37.897 59.9705 38.027C59.9316 38.2232 59.869 38.3957 59.7831 38.5494C59.7028 38.6926 59.6018 38.8272 59.4821 38.9529C59.3565 39.0842 59.1553 39.2273 58.5785 39.5051C58.1595 39.7077 57.6174 39.9052 56.968 40.0938C56.3359 40.2777 55.5938 40.4446 54.763 40.5912C53.9207 40.739 53.0108 40.8137 52.0581 40.8137C50.3918 40.8137 48.9035 40.5648 47.6354 40.0738C46.3428 39.5748 45.2376 38.8208 44.3509 37.8329C43.4697 36.8509 42.7983 35.6115 42.3556 34.1482C41.9235 32.7207 41.704 31.045 41.704 29.1681C41.704 27.3795 41.9311 25.7425 42.3793 24.3031C42.8338 22.8428 43.5031 21.5813 44.3682 20.553C45.2405 19.5158 46.3094 18.7083 47.5462 18.1527C48.777 17.601 50.1652 17.3211 51.6725 17.3211C53.2835 17.3211 54.6868 17.5989 55.8441 18.1477C57.0027 18.6981 57.9701 19.4516 58.7206 20.3878C59.4643 21.3175 60.0165 22.4172 60.362 23.6574ZM49.5153 22.0753C48.9478 22.3692 48.4688 22.7612 48.0912 23.2412C47.7009 23.736 47.3935 24.3243 47.1766 24.9903C47.0295 25.4431 46.9246 25.9133 46.8629 26.3958H55.8699C55.8073 24.9797 55.4467 23.846 54.7942 23.0195C54.0623 22.0935 52.9816 21.6429 51.4907 21.6429C50.7343 21.6429 50.0696 21.7881 49.5153 22.0753ZM77.9037 29.4956C77.3498 29.0181 76.7075 28.6083 75.9947 28.2765C75.3181 27.9622 74.6294 27.6755 73.9478 27.4254C73.2734 27.1769 72.6116 26.9356 71.9609 26.7024C71.3559 26.4862 70.8125 26.2403 70.3457 25.9715C69.9166 25.7247 69.5686 25.4401 69.3102 25.1245C69.1018 24.8701 69.0003 24.5532 69.0003 24.1552C69.0003 23.8545 69.0587 23.5852 69.1796 23.3321C69.2975 23.0832 69.4705 22.8721 69.7085 22.6852C69.9538 22.4924 70.287 22.3373 70.6992 22.2248C71.1394 22.1042 71.6662 22.043 72.2653 22.043C72.9393 22.043 73.5419 22.1148 74.0547 22.2566C74.5926 22.4057 75.0695 22.5675 75.4712 22.7374C75.867 22.9056 76.1887 23.0636 76.4276 23.2055C77.1447 23.6341 77.6373 23.6315 78.0593 23.3576C78.2513 23.2344 78.4069 23.0509 78.5236 22.8084C78.6128 22.6202 78.6728 22.4027 78.7058 22.1454C78.7337 21.933 78.7481 21.6917 78.7481 21.4071C78.7481 21.1336 78.7337 20.9059 78.7045 20.7123C78.6779 20.5334 78.6513 20.381 78.6246 20.2586C78.5828 20.0688 78.5109 19.8921 78.4077 19.7277C78.2982 19.5574 78.132 19.3968 77.8809 19.2206C77.6783 19.0795 77.4039 18.9283 77.0416 18.7567C76.686 18.589 76.267 18.4369 75.7583 18.2904C75.2682 18.151 74.7203 18.0347 74.1287 17.9438C73.5279 17.852 72.9173 17.8053 72.3127 17.8053C70.9474 17.8053 69.7276 17.9786 68.6857 18.3205C67.6333 18.6667 66.7382 19.1386 66.0249 19.7226C65.2938 20.3206 64.7361 21.0312 64.3674 21.834C64.0004 22.6317 63.8144 23.4786 63.8144 24.3515C63.8144 25.3309 63.9953 26.1944 64.3518 26.9186C64.7006 27.6254 65.1678 28.2421 65.7403 28.7523C66.2946 29.2458 66.928 29.668 67.6215 30.0057C68.2692 30.3234 68.9546 30.6156 69.6582 30.8743C70.3326 31.1223 70.9867 31.3602 71.6222 31.5862C72.2087 31.7947 72.7436 32.0368 73.2125 32.3057C73.6408 32.552 73.9846 32.8328 74.2353 33.1399C74.4366 33.3871 74.5342 33.6933 74.5342 34.0777C74.5342 34.4923 74.4564 34.8456 74.3021 35.129C74.1473 35.4152 73.9283 35.6463 73.6306 35.8379C73.3089 36.046 72.9123 36.2087 72.4518 36.3212C71.9732 36.4376 71.4235 36.4966 70.8189 36.4966C70.0041 36.4966 69.2811 36.4074 68.6696 36.2307C68.024 36.0443 67.4646 35.8408 67.0054 35.6255C66.5369 35.408 66.1335 35.2016 65.8042 35.0109C64.9767 34.536 64.4744 34.5288 64.0165 34.7964C63.7936 34.9276 63.619 35.1353 63.5125 35.397C63.4435 35.5664 63.3903 35.7669 63.3501 36.0082C63.3116 36.2358 63.293 36.5039 63.293 36.8275C63.293 37.3572 63.3421 37.7755 63.4423 38.1047C63.5619 38.5036 63.767 38.8259 64.0499 39.0621C64.2723 39.2481 64.5936 39.4405 65.0291 39.6482C65.441 39.847 65.9424 40.0365 66.5179 40.2115C67.0942 40.3881 67.7496 40.5351 68.465 40.6485C69.1834 40.7632 69.9512 40.821 70.7478 40.821C72.0421 40.821 73.2455 40.6727 74.3249 40.3818C75.4344 40.084 76.4073 39.6351 77.2158 39.0485C78.0475 38.4471 78.6999 37.694 79.1549 36.8092C79.6085 35.9237 79.839 34.9094 79.839 33.7948C79.839 32.8404 79.6567 31.9969 79.299 31.2876C78.9494 30.5957 78.48 29.9925 77.9037 29.4956ZM100.149 22.5272H98.7304C98.8661 22.7778 98.9781 23.0369 99.0661 23.3036C99.2936 23.9977 99.4094 24.7282 99.4094 25.4754C99.4094 26.6859 99.2056 27.7796 98.8035 28.7264C98.3951 29.6854 97.8039 30.5073 97.0458 31.1695C96.3004 31.8227 95.4027 32.3295 94.3791 32.6748C93.3715 33.0142 92.2468 33.1862 91.0354 33.1862C90.1673 33.1862 89.3297 33.0719 88.5449 32.8464C88.021 32.696 87.5754 32.5202 87.1987 32.3154C87.1416 32.4012 87.0891 32.4904 87.0422 32.5826C86.9251 32.8128 86.868 33.08 86.868 33.399C86.868 33.5761 86.9141 33.8118 87.2752 34.062C87.6354 34.3122 88.1475 34.4506 88.7982 34.4748L93.9634 34.6902C94.993 34.7203 95.9609 34.8635 96.8315 35.1149C97.7287 35.3749 98.5189 35.7521 99.1828 36.2358C99.8694 36.7379 100.413 37.3627 100.798 38.0941C101.189 38.8357 101.387 39.6975 101.387 40.6566C101.387 41.6479 101.171 42.6053 100.746 43.5024C100.319 44.4033 99.6627 45.2035 98.7946 45.8809C97.9435 46.5431 96.8551 47.069 95.5592 47.4453C94.2814 47.814 92.7668 48.0013 91.0574 48.0013C89.4151 48.0013 87.9893 47.8603 86.8202 47.5833C85.6291 47.3009 84.6279 46.9037 83.8461 46.4038C83.0229 45.8763 82.4131 45.2281 82.0351 44.4776C81.6639 43.7419 81.4753 42.9341 81.4753 42.0782C81.4753 41.5435 81.5425 41.0185 81.6749 40.5177C81.8081 40.0105 82.0157 39.52 82.2909 39.0608C82.5658 38.6068 82.9028 38.1752 83.2939 37.7772C83.4601 37.6082 83.6376 37.4391 83.8254 37.2714C83.4233 36.9617 83.096 36.6088 82.8482 36.2155C82.4334 35.5571 82.2224 34.8346 82.2224 34.0679C82.2224 33.0779 82.4351 32.1757 82.8546 31.3861C83.1505 30.828 83.5057 30.3064 83.9129 29.8298C83.589 29.3711 83.3193 28.8703 83.107 28.3343C82.8114 27.5859 82.6613 26.6825 82.6613 25.6486C82.6613 24.4479 82.874 23.3521 83.2926 22.3917C83.7121 21.425 84.3044 20.5955 85.0524 19.9273C85.7919 19.2647 86.69 18.7495 87.7217 18.3966C88.7369 18.0495 89.8523 17.8733 91.0366 17.8733C91.6561 17.8733 92.2501 17.9077 92.8032 17.9756C93.3178 18.0402 93.8083 18.129 94.2636 18.2407H100.151C100.66 18.2407 101.092 18.5083 101.338 18.9751C101.519 19.3174 101.607 19.7821 101.607 20.395C101.607 21.041 101.503 21.521 101.29 21.862C101.018 22.2906 100.614 22.5272 100.149 22.5272ZM93.7981 43.5763C94.4471 43.3932 94.9702 43.1537 95.3524 42.8644C95.7067 42.5951 95.9613 42.2902 96.1084 41.9584C96.2666 41.6021 96.3435 41.2398 96.3435 40.8494C96.3435 40.262 96.1152 39.8394 95.6239 39.5191C95.0442 39.1424 94.218 38.9385 93.1698 38.9126L88.3022 38.7486C87.9538 39.0268 87.6629 39.291 87.4359 39.5361C87.1695 39.8228 86.9598 40.0938 86.8109 40.3427C86.6744 40.5712 86.5805 40.7951 86.5314 41.0087C86.4777 41.241 86.4511 41.484 86.4511 41.7312C86.4511 42.1423 86.5602 42.7429 87.5061 43.2135C88.3678 43.643 89.6214 43.86 91.2324 43.86C92.2616 43.8613 93.125 43.7653 93.7981 43.5763ZM92.626 28.7484C93.0577 28.5666 93.3998 28.325 93.6738 28.0102C93.9529 27.6908 94.1643 27.3136 94.3038 26.8885C94.4476 26.4459 94.5207 25.9774 94.5207 25.4974C94.5207 24.3642 94.2264 23.5186 93.6201 22.912C93.0129 22.3059 92.1457 22.0107 90.9686 22.0107C90.3673 22.0107 89.8468 22.1063 89.421 22.2949C89.0003 22.4801 88.6494 22.7353 88.3762 23.0543C88.0951 23.3831 87.8824 23.7679 87.7449 24.1969C87.5999 24.6475 87.5268 25.1279 87.5268 25.6257C87.5268 26.7148 87.8202 27.5349 88.4244 28.133C89.0316 28.7344 89.8849 29.0266 91.035 29.0266C91.6552 29.0262 92.1901 28.9328 92.626 28.7484ZM125 29.0967C125 30.7571 124.778 32.312 124.342 33.7197C123.896 35.1493 123.222 36.4028 122.335 37.4455C121.44 38.4972 120.307 39.3271 118.968 39.9133C117.638 40.4948 116.086 40.7895 114.354 40.7895C112.672 40.7895 111.177 40.5304 109.911 40.0195C108.623 39.4996 107.532 38.7304 106.669 37.7331C105.814 36.7447 105.169 35.5342 104.753 34.1355C104.347 32.7712 104.141 31.2073 104.141 29.4883C104.141 27.8276 104.359 26.273 104.787 24.8684C105.225 23.437 105.897 22.1823 106.784 21.1391C107.68 20.0866 108.81 19.2596 110.141 18.6816C111.465 18.1077 113.02 17.8172 114.765 17.8172C116.446 17.8172 117.941 18.0763 119.208 18.5873C120.496 19.1076 121.587 19.8768 122.45 20.8741C123.304 21.8603 123.952 23.0696 124.375 24.4674C124.789 25.836 125 27.3935 125 29.0967ZM116.943 35.8268C117.611 35.4993 118.144 35.0529 118.573 34.4613C119.008 33.859 119.335 33.1233 119.543 32.2751C119.761 31.3937 119.871 30.4054 119.871 29.3363C119.871 28.3305 119.777 27.3693 119.592 26.4794C119.415 25.6266 119.122 24.8726 118.721 24.2385C118.334 23.6277 117.823 23.1571 117.16 22.7999C116.499 22.4456 115.645 22.2656 114.624 22.2656C113.682 22.2656 112.869 22.4312 112.209 22.7574C111.548 23.0845 111.02 23.5338 110.592 24.1306C110.154 24.7444 109.822 25.4872 109.605 26.3372C109.383 27.2164 109.269 28.1963 109.269 29.2488C109.269 30.2656 109.363 31.2345 109.547 32.1277C109.725 32.9776 110.02 33.726 110.426 34.3508C110.819 34.9561 111.334 35.4246 112.002 35.7835C112.663 36.139 113.515 36.3187 114.538 36.3187C115.467 36.3187 116.277 36.153 116.943 35.8268Z" fill="#231F20"/>
<path d="M6 0H2C0.895431 0 0 0.895431 0 2V6C0 7.10457 0.895431 8 2 8H6C7.10457 8 8 7.10457 8 6V2C8 0.895431 7.10457 0 6 0Z" fill="#0051FF"/>
</g>
<defs>
<clipPath id="clip0">
<rect width="125" height="48" fill="white"/>
</clipPath>
</defs>
</svg>
