<svg width="105" height="40" viewBox="0 0 105 40" fill="none" xmlns="http://www.w3.org/2000/svg">
<g clip-path="url(#clip0)">
<path d="M33.7271 10.5344C33.7584 10.734 33.774 10.9641 33.774 11.2186C33.774 11.4784 33.7587 11.701 33.7264 11.8992C33.687 12.1434 33.6191 12.3431 33.5193 12.5098C33.4053 12.7023 33.254 12.8514 33.0718 12.9508C32.8925 13.0474 32.6985 13.0956 32.4929 13.0956H25.8451V32.3507C25.8451 32.573 25.7766 32.7825 25.6462 32.957C25.5127 33.134 25.317 33.2618 25.062 33.3411C24.8997 33.3917 24.7011 33.4324 24.4376 33.4688C24.1858 33.5028 23.8892 33.5191 23.5273 33.5191C23.1849 33.5191 22.8837 33.5025 22.6319 33.4695C22.3573 33.4327 22.1545 33.3917 21.9911 33.3407C21.7383 33.2625 21.5422 33.1343 21.4108 32.9606C21.278 32.7825 21.2094 32.573 21.2094 32.3507V13.0956H14.5627C14.3564 13.0956 14.1624 13.0474 13.9859 12.9519C13.7931 12.8482 13.6393 12.6892 13.5295 12.4801C13.45 12.3332 13.3878 12.1481 13.3423 11.9212C13.3011 11.7166 13.2812 11.4865 13.2812 11.2186C13.2812 10.9563 13.3018 10.7184 13.342 10.5121C13.3857 10.2845 13.4457 10.0969 13.526 9.93938C13.6311 9.72665 13.7852 9.56171 13.982 9.4534C14.1621 9.35606 14.356 9.30792 14.5627 9.30792H32.4925C32.6989 9.30792 32.8928 9.35606 33.069 9.45057C33.2622 9.55817 33.4142 9.71391 33.5282 9.91708C33.6234 10.087 33.6888 10.2891 33.7271 10.5344ZM50.704 19.7145C50.9874 20.7222 51.1313 21.811 51.1313 22.9507V23.5086C51.1313 24.1705 50.9434 24.6695 50.5726 24.9927C50.2245 25.295 49.8203 25.4482 49.3707 25.4482H39.3293C39.3598 26.09 39.4401 26.6818 39.569 27.2127C39.7285 27.8672 39.9945 28.4331 40.36 28.894C40.7212 29.3506 41.1811 29.6925 41.7661 29.9392C42.3621 30.1912 43.1154 30.3186 44.0062 30.3186C44.7296 30.3186 45.38 30.2578 45.9387 30.1371C46.5151 30.0121 47.0138 29.8734 47.4208 29.724C47.8388 29.5711 48.1887 29.4306 48.4618 29.3053C49.1381 28.9931 49.5536 28.9835 49.9123 29.2178C50.0825 29.3297 50.2096 29.4865 50.2927 29.6847C50.352 29.8291 50.3922 29.9994 50.417 30.2086C50.4376 30.3887 50.4479 30.6022 50.4479 30.846C50.4479 31.0255 50.4405 31.1869 50.4263 31.3253C50.4131 31.4591 50.3954 31.5808 50.3751 31.6891C50.3424 31.8527 50.2899 31.9964 50.2178 32.1245C50.1503 32.2438 50.0654 32.356 49.9649 32.4608C49.8594 32.5701 49.6903 32.6894 49.2059 32.9209C48.8539 33.0897 48.3986 33.2543 47.853 33.4115C47.3221 33.5648 46.6987 33.7039 46.0008 33.826C45.2933 33.9491 44.529 34.0114 43.7288 34.0114C42.329 34.0114 41.0788 33.804 40.0137 33.3949C38.9279 32.979 37.9995 32.3507 37.2547 31.5274C36.5145 30.7091 35.9505 29.6762 35.5786 28.4568C35.2156 27.2672 35.0313 25.8709 35.0313 24.3067C35.0313 22.8162 35.222 21.4521 35.5985 20.2525C35.9803 19.0356 36.5426 17.9844 37.2692 17.1275C38.002 16.2631 38.8998 15.5903 39.9387 15.1273C40.9726 14.6675 42.1387 14.4342 43.4049 14.4342C44.7581 14.4342 45.9369 14.6657 46.909 15.123C47.8822 15.5818 48.6948 16.2097 49.3252 16.9898C49.95 17.7646 50.4138 18.681 50.704 19.7145ZM41.5928 18.396C41.1161 18.641 40.7137 18.9677 40.3965 19.3677C40.0687 19.78 39.8105 20.2702 39.6283 20.8252C39.5047 21.2025 39.4166 21.5944 39.3648 21.9965H46.9307C46.8781 20.8164 46.5751 19.8717 46.0271 19.1829C45.4123 18.4113 44.5045 18.0357 43.2521 18.0357C42.6167 18.0357 42.0584 18.1568 41.5928 18.396ZM65.439 24.5796C64.9738 24.1818 64.4343 23.8402 63.8354 23.5638C63.2672 23.3019 62.6886 23.0629 62.1161 22.8545C61.5496 22.6474 60.9937 22.4463 60.4471 22.252C59.9388 22.0719 59.4825 21.8669 59.0903 21.6429C58.7298 21.4372 58.4375 21.2001 58.2205 20.9371C58.0454 20.7251 57.9602 20.461 57.9602 20.1294C57.9602 19.8788 58.0092 19.6544 58.1108 19.4434C58.2099 19.236 58.3551 19.0601 58.5551 18.9043C58.7611 18.7436 59.041 18.6144 59.3873 18.5206C59.757 18.4201 60.1995 18.3691 60.7028 18.3691C61.269 18.3691 61.7751 18.429 62.2059 18.5472C62.6577 18.6714 63.0583 18.8063 63.3957 18.9479C63.7282 19.088 63.9985 19.2197 64.1991 19.3379C64.8015 19.6951 65.2153 19.6929 65.5698 19.4646C65.731 19.362 65.8617 19.2091 65.9597 19.007C66.0347 18.8502 66.0851 18.6689 66.1128 18.4545C66.1363 18.2775 66.1483 18.0764 66.1483 17.8393C66.1483 17.6113 66.1363 17.4216 66.1117 17.2602C66.0894 17.1112 66.067 16.9841 66.0446 16.8822C66.0095 16.724 65.9491 16.5767 65.8624 16.4397C65.7704 16.2978 65.6308 16.164 65.4199 16.0171C65.2497 15.8996 65.0192 15.7736 64.7149 15.6306C64.4162 15.4908 64.0642 15.3641 63.6369 15.242C63.2253 15.1259 62.765 15.0289 62.2681 14.9531C61.7634 14.8767 61.2505 14.8377 60.7426 14.8377C59.5957 14.8377 58.5711 14.9822 57.6959 15.2671C56.8119 15.5556 56.06 15.9488 55.4608 16.4355C54.8467 16.9339 54.3783 17.526 54.0686 18.195C53.7603 18.8597 53.604 19.5655 53.604 20.2929C53.604 21.1091 53.756 21.8287 54.0554 22.4322C54.3484 23.0212 54.7409 23.5351 55.2218 23.9602C55.6874 24.3715 56.2195 24.7233 56.802 25.0047C57.3461 25.2695 57.9218 25.513 58.5128 25.7286C59.0793 25.9353 59.6288 26.1335 60.1626 26.3218C60.6552 26.4956 61.1045 26.6973 61.4984 26.9214C61.8582 27.1267 62.147 27.3606 62.3576 27.6166C62.5266 27.8226 62.6087 28.0778 62.6087 28.3981C62.6087 28.7435 62.5433 29.038 62.4137 29.2741C62.2837 29.5127 62.0997 29.7052 61.8497 29.8649C61.5794 30.0383 61.2462 30.1739 60.8595 30.2677C60.4574 30.3647 59.9957 30.4139 59.4878 30.4139C58.8034 30.4139 58.196 30.3395 57.6824 30.1923C57.1401 30.0369 56.6702 29.8673 56.2845 29.6879C55.8909 29.5067 55.5521 29.3346 55.2754 29.1757C54.5804 28.78 54.1584 28.774 53.7738 28.997C53.5866 29.1063 53.4399 29.2794 53.3504 29.4975C53.2925 29.6387 53.2478 29.8058 53.214 30.0068C53.1817 30.1965 53.1661 30.4199 53.1661 30.6896C53.1661 31.131 53.2073 31.4796 53.2914 31.7539C53.392 32.0863 53.5642 32.3549 53.8018 32.5517C53.9886 32.7068 54.2586 32.8671 54.6244 33.0402C54.9703 33.2058 55.3916 33.3637 55.875 33.5095C56.3591 33.6568 56.9096 33.7792 57.5105 33.8738C58.114 33.9693 58.759 34.0175 59.4281 34.0175C60.5153 34.0175 61.5261 33.8939 62.4329 33.6515C63.3648 33.4034 64.1821 33.0292 64.8612 32.5404C65.5598 32.0392 66.1078 31.4117 66.49 30.6744C66.8711 29.9364 67.0647 29.0911 67.0647 28.1624C67.0647 27.367 66.9116 26.6641 66.6111 26.073C66.3174 25.4964 65.9231 24.9938 65.439 24.5796ZM84.1254 18.7727H82.9334C83.0474 18.9815 83.1416 19.1974 83.2154 19.4197C83.4065 19.998 83.5038 20.6068 83.5038 21.2295C83.5038 22.2382 83.3326 23.1497 82.9949 23.9386C82.6518 24.7378 82.1553 25.4227 81.5184 25.9746C80.8923 26.5189 80.1382 26.9412 79.2784 27.229C78.432 27.5118 77.4872 27.6551 76.4696 27.6551C75.7405 27.6551 75.0369 27.5599 74.3777 27.372C73.9376 27.2467 73.5633 27.1001 73.2468 26.9295C73.1989 27.001 73.1548 27.0754 73.1154 27.1522C73.017 27.344 72.9691 27.5666 72.9691 27.8325C72.9691 27.9801 73.0078 28.1765 73.3111 28.385C73.6137 28.5935 74.0438 28.7089 74.5904 28.729L78.9292 28.9085C79.7941 28.9336 80.607 29.0529 81.3383 29.2624C82.092 29.4791 82.7558 29.7934 83.3135 30.1965C83.8903 30.6149 84.3467 31.1356 84.6706 31.7451C84.9984 32.3631 85.1646 33.0813 85.1646 33.8805C85.1646 34.7066 84.9835 35.5044 84.6265 36.252C84.2682 37.0027 83.7166 37.6696 82.9874 38.2341C82.2725 38.7859 81.3582 39.2241 80.2696 39.5377C79.1963 39.845 77.9241 40.0011 76.4881 40.0011C75.1086 40.0011 73.911 39.8835 72.9289 39.6528C71.9284 39.4174 71.0874 39.0864 70.4306 38.6698C69.7391 38.2302 69.227 37.6901 68.9094 37.0647C68.5976 36.4516 68.4392 35.7784 68.4392 35.0652C68.4392 34.6195 68.4957 34.182 68.6068 33.7647C68.7187 33.3421 68.8931 32.9333 69.1243 32.5507C69.3552 32.1723 69.6383 31.8127 69.9668 31.481C70.1064 31.3402 70.2555 31.1993 70.4132 31.0595C70.0755 30.8014 69.8006 30.5073 69.5924 30.1795C69.244 29.6309 69.0668 29.0288 69.0668 28.3899C69.0668 27.5649 69.2454 26.8131 69.5978 26.1551C69.8464 25.69 70.1447 25.2553 70.4868 24.8582C70.2147 24.4759 69.9881 24.0586 69.8098 23.6119C69.5615 22.9882 69.4355 22.2354 69.4355 21.3739C69.4355 20.3732 69.6141 19.46 69.9657 18.6597C70.3181 17.8541 70.8157 17.1629 71.444 16.6061C72.0651 16.0539 72.8195 15.6246 73.6862 15.3305C74.5389 15.0413 75.4759 14.8944 76.4707 14.8944C76.991 14.8944 77.4901 14.9231 77.9546 14.9797C78.3869 15.0335 78.7989 15.1075 79.1814 15.2006H84.1268C84.5541 15.2006 84.9174 15.4235 85.1238 15.8125C85.2758 16.0978 85.35 16.485 85.35 16.9958C85.35 17.5342 85.2626 17.9341 85.0833 18.2184C84.8549 18.5755 84.5154 18.7727 84.1254 18.7727ZM78.7903 36.3136C79.3355 36.161 79.7749 35.9614 80.096 35.7203C80.3936 35.4959 80.6074 35.2418 80.731 34.9654C80.8638 34.6684 80.9285 34.3665 80.9285 34.0412C80.9285 33.5517 80.7367 33.1995 80.324 32.9326C79.837 32.6186 79.143 32.4487 78.2626 32.4271L74.1738 32.2905C73.8811 32.5224 73.6368 32.7425 73.4461 32.9468C73.2223 33.1857 73.0461 33.4115 72.9211 33.6189C72.8064 33.8093 72.7275 33.9959 72.6863 34.1739C72.6412 34.3675 72.6189 34.57 72.6189 34.776C72.6189 35.1186 72.7105 35.6191 73.505 36.0113C74.2289 36.3691 75.2819 36.55 76.6352 36.55C77.4996 36.5511 78.2249 36.4711 78.7903 36.3136ZM77.8058 23.957C78.1684 23.8055 78.4558 23.6041 78.6859 23.3418C78.9203 23.0757 79.0979 22.7614 79.2151 22.4071C79.3359 22.0382 79.3973 21.6478 79.3973 21.2479C79.3973 20.3035 79.1501 19.5988 78.6408 19.0933C78.1308 18.5882 77.4023 18.3422 76.4135 18.3422C75.9085 18.3422 75.4713 18.4219 75.1136 18.579C74.7602 18.7334 74.4654 18.9461 74.236 19.2119C73.9998 19.4859 73.8211 19.8066 73.7057 20.164C73.5839 20.5396 73.5224 20.9399 73.5224 21.3548C73.5224 22.2623 73.7689 22.9458 74.2765 23.4441C74.7865 23.9453 75.5032 24.1889 76.4693 24.1889C76.9903 24.1885 77.4396 24.1106 77.8058 23.957ZM105 24.2473C105 25.6309 104.814 26.9267 104.447 28.0997C104.073 29.2911 103.506 30.3356 102.761 31.2046C102.009 32.081 101.058 32.7726 99.9331 33.2611C98.8157 33.7456 97.5118 33.9913 96.0574 33.9913C94.6445 33.9913 93.389 33.7754 92.3253 33.3496C91.243 32.9163 90.3267 32.2753 89.6018 31.4442C88.8833 30.6206 88.342 29.6118 87.9929 28.4462C87.6515 27.3093 87.4782 26.0061 87.4782 24.5736C87.4782 23.1897 87.6611 21.8942 88.0213 20.7237C88.3889 19.5308 88.9532 18.4852 89.6988 17.6159C90.451 16.7388 91.4 16.0497 92.5185 15.568C93.6305 15.0898 94.9368 14.8477 96.4023 14.8477C97.8148 14.8477 99.0703 15.0636 100.135 15.4894C101.217 15.923 102.133 16.564 102.858 17.3951C103.575 18.2169 104.119 19.2247 104.475 20.3895C104.823 21.53 105 22.8279 105 24.2473ZM98.2321 29.8557C98.7929 29.5828 99.2408 29.2108 99.601 28.7177C99.9664 28.2158 100.241 27.6027 100.416 26.8959C100.599 26.1614 100.692 25.3378 100.692 24.4469C100.692 23.6087 100.613 22.8077 100.457 22.0662C100.308 21.3555 100.062 20.7272 99.7253 20.1987C99.4003 19.6898 98.9713 19.2976 98.414 18.9999C97.8588 18.7047 97.1418 18.5546 96.2844 18.5546C95.4927 18.5546 94.81 18.6927 94.2556 18.9645C93.7005 19.237 93.2565 19.6115 92.8974 20.1088C92.5295 20.6203 92.2503 21.2394 92.0681 21.9476C91.8813 22.6803 91.7861 23.4969 91.7861 24.374C91.7861 25.2213 91.865 26.0287 92.0198 26.7731C92.169 27.4813 92.4169 28.105 92.7575 28.6257C93.0878 29.1301 93.5208 29.5205 94.0819 29.8196C94.6367 30.1158 95.3527 30.2655 96.2115 30.2655C96.9926 30.2655 97.6727 30.1275 98.2321 29.8557Z" fill="#231F20"/>
<path d="M4.72 0H2C0.895431 0 0 0.895429 0 2V4.66667C0 5.77124 0.89543 6.66667 2 6.66667H4.72C5.82457 6.66667 6.72 5.77124 6.72 4.66667V2C6.72 0.895431 5.82457 0 4.72 0Z" fill="#0051FF"/>
</g>
<defs>
<clipPath id="clip0">
<rect width="105" height="40" fill="white"/>
</clipPath>
</defs>
</svg>
